<svg width="300" height="360" viewBox="0 0 300 360" fill="none" xmlns="http://www.w3.org/2000/svg">
  <rect width="300" height="360" rx="18" fill="#F7F4EE"/>
  <circle cx="150" cy="82" r="34" fill="#E6B79E"/>
  <path d="M116 76c7-35 61-42 75-4 4 10 3 22-2 30-18-16-58-17-73-26z" fill="#171717"/>
  <path d="M111 150c11-25 67-36 82 0l21 94c5 22-12 42-34 42h-60c-22 0-39-20-34-42l25-94z" fill="#E6B79E"/>
  <path d="M102 172c24 20 72 20 96 0" stroke="#171717" stroke-width="7" stroke-linecap="round"/>
  <path d="M112 168c12 16 26 23 42 25M188 168c-12 16-26 23-42 25" stroke="#E6B79E" stroke-width="24" stroke-linecap="round"/>
  <path d="M108 173c14 16 30 24 46 26M192 173c-14 16-30 24-46 26" stroke="#171717" stroke-width="7" stroke-linecap="round"/>
  <path d="M113 252c9 32 28 51 37 71M187 252c-9 32-28 51-37 71" stroke="#171717" stroke-width="8" stroke-linecap="round"/>
  <path d="M74 122c-19 15-33 43-35 76M226 122c19 15 33 43 35 76" stroke="#171717" stroke-width="8" stroke-linecap="round"/>
  <path d="M88 118c-25 17-36 41-39 77M212 118c25 17 36 41 39 77" stroke="#E6B79E" stroke-width="18" stroke-linecap="round"/>
  <path d="M84 220h132" stroke="#2457D6" stroke-width="14" stroke-linecap="round"/>
  <path d="M97 238h106" stroke="#2457D6" stroke-width="14" stroke-linecap="round"/>
  <path d="M116 256h68" stroke="#2457D6" stroke-width="14" stroke-linecap="round"/>
  <path d="M55 314h190" stroke="#D9D3CA" stroke-width="3" stroke-linecap="round"/>
  <text x="150" y="39" text-anchor="middle" fill="#171717" font-family="Arial, sans-serif" font-size="20" font-weight="800">Oops.</text>
  <text x="150" y="337" text-anchor="middle" fill="#2457D6" font-family="Arial, sans-serif" font-size="18" font-weight="800">Product extracted.</text>
</svg>
