<svg width="359" height="460" viewBox="0 0 359 460" fill="none" xmlns="http://www.w3.org/2000/svg">
<g clip-path="url(#clip0_99_91)">
<path d="M347.831 0H11.1689C5.00048 0 0 8.23796 0 18.4V441.6C0 451.762 5.00048 460 11.1689 460H347.831C354 460 359 451.762 359 441.6V18.4C359 8.23796 354 0 347.831 0Z" fill="#F6F4EF"/>
<path d="M300.46 53.8857H63.4005C52.6185 53.8857 43.8779 65.1364 43.8779 79.0148V378.768C43.8779 392.646 52.6185 403.897 63.4005 403.897H300.46C311.242 403.897 319.982 392.646 319.982 378.768V79.0148C319.982 65.1364 311.242 53.8857 300.46 53.8857Z" fill="#F8F7F4" stroke="#2F5BD8" stroke-width="7" stroke-dasharray="20 18"/>
<path d="M182.485 281.878C198.543 281.878 211.56 270.017 211.56 255.385C211.56 240.753 198.543 228.892 182.485 228.892C166.427 228.892 153.41 240.753 153.41 255.385C153.41 270.017 166.427 281.878 182.485 281.878Z" fill="#C7D6FF"/>
<path d="M134.027 330.379C142.104 300.145 158.256 281.878 182.485 281.878C206.714 281.878 222.867 300.145 230.943 330.379" fill="#C7D6FF"/>
<path d="M181.93 116.708V189.929M216.094 148.742L181.93 116.708L147.766 148.742" stroke="#2F5BD8" stroke-width="8" stroke-linecap="round" stroke-linejoin="round"/>
</g>
<defs>
<clipPath id="clip0_99_91">
<rect width="359" height="460" fill="white"/>
</clipPath>
</defs>
</svg>
